<svg viewBox="0 0 64 64" fill="none" xmlns="http://www.w3.org/2000/svg">
<g clip-path="url(#clip0_81_53647)">
<circle cx="32" cy="32" r="32" fill="white"/>
<path d="M32.3337 27L29.0003 23.6667H33.667C35.5003 23.6667 37.0003 25.1667 37.0003 27V31.6667L33.667 28.3333V27H32.3337ZM50.3337 27V23.6667H43.667C41.8337 23.6667 40.3337 25.1667 40.3337 27V30.3333C40.3337 32.1667 41.8337 33.6667 43.667 33.6667H47.0003V37H42.3337L45.667 40.3333H47.0003C48.8337 40.3333 50.3337 38.8333 50.3337 37V33.6667C50.3337 31.8333 48.8337 30.3333 47.0003 30.3333H43.667V27H50.3337ZM48.8337 47.8333L46.667 50L36.0003 39.3333C35.5003 39.8333 34.667 40.3333 33.667 40.3333H27.0003V30.1667L23.667 26.8333V40.3333H20.3337V33.6667H17.0003V40.3333H13.667V27C13.667 25.1667 15.167 23.6667 17.0003 23.6667H20.5003L13.8337 17L16.0003 14.8333L48.8337 47.8333ZM20.3337 27H17.0003V30.3333H20.3337V27ZM33.667 36.8333L30.3337 33.5V37H33.667V36.8333Z" fill="#472785"/>
</g>
<defs>
<clipPath id="clip0_81_53647">
<rect width="64" height="64" rx="32" fill="white"/>
</clipPath>
</defs>
</svg>
